<svg width="17.279999" height="24.000000" viewBox="0 0 17.28 24" fill="none" xmlns="http://www.w3.org/2000/svg" xmlns:xlink="http://www.w3.org/1999/xlink">
    <desc>
        Created with Pixso.
    </desc>
    <defs/>
    <path id="Vector" d="M8.64 0C5.61 0 3.14 2.51 3.14 5.59L3.14 8.41C1.22 10.03 0 12.47 0 15.2C0 20.04 3.87 24 8.64 24C13.4 24 17.28 20.04 17.28 15.2C17.28 12.47 16.05 10.03 14.13 8.41L14.13 5.59C14.13 2.51 11.66 0 8.64 0ZM8.64 1.59C10.81 1.59 12.56 3.38 12.56 5.59L12.56 7.37C11.38 6.75 10.05 6.4 8.64 6.4C7.22 6.4 5.89 6.75 4.71 7.37L4.71 5.59C4.71 3.38 6.46 1.59 8.64 1.59ZM8.64 8C12.55 8 15.7 11.21 15.7 15.2C15.7 19.18 12.55 22.4 8.64 22.4C4.72 22.4 1.57 19.18 1.57 15.2C1.57 11.21 4.72 8 8.64 8ZM8.64 12.8C7.33 12.8 6.28 13.87 6.28 15.2C6.28 16.21 6.91 17.11 7.85 17.45L7.85 19.2L9.42 19.2L9.42 17.45C10.36 17.11 10.99 16.21 10.99 15.2C10.99 13.87 9.94 12.8 8.64 12.8Z" fill="#FFFFFF" fill-opacity="1.000000" fill-rule="nonzero"/>
</svg>
