<svg width="24.000000" height="22.282349" viewBox="0 0 24 22.2823" fill="none" xmlns="http://www.w3.org/2000/svg" xmlns:xlink="http://www.w3.org/1999/xlink">
    <desc>
        Created with Pixso.
    </desc>
    <defs/>
    <path id="Vector" d="M12 0C10.11 0 8.57 1.54 8.57 3.42C8.57 4.05 8.75 4.63 9.05 5.14L4.28 5.14C3.88 5.14 3.53 5.42 3.44 5.81L0.02 21.23C-0.04 21.49 0.02 21.76 0.18 21.96C0.34 22.16 0.59 22.28 0.85 22.28L23.14 22.28C23.4 22.28 23.65 22.16 23.81 21.96C23.97 21.76 24.03 21.49 23.97 21.23L20.55 5.81C20.46 5.42 20.11 5.14 19.71 5.14L14.94 5.14C15.24 4.63 15.42 4.05 15.42 3.42C15.42 1.54 13.88 0 12 0ZM12 1.71C12.95 1.71 13.71 2.47 13.71 3.42C13.71 4.38 12.95 5.14 12 5.14C11.04 5.14 10.28 4.38 10.28 3.42C10.28 2.47 11.04 1.71 12 1.71ZM4.96 6.85L19.02 6.85L22.06 20.56L1.93 20.56L4.96 6.85Z" fill="#8C99B2" fill-opacity="1.000000" fill-rule="nonzero"/>
    <g opacity="0.300000">
        <path id="Vector 2" d="M1.92 20.81L4.93 6.86L19.07 6.86L22.07 20.81L1.92 20.81Z" fill="#8C99B2" fill-opacity="1.000000" fill-rule="evenodd"/>
    </g>
</svg>
