<svg width="24.000000" height="20.000000" viewBox="0 0 24 20" fill="none" xmlns="http://www.w3.org/2000/svg" xmlns:xlink="http://www.w3.org/1999/xlink">
    <desc>
        Created with Pixso.
    </desc>
    <defs/>
    <path id="Vector" d="M6.67 7.39L6.67 4.68C6.69 4.56 6.69 4.44 6.67 4.32C6.61 4.07 6.65 3.81 6.78 3.58C6.9 3.36 7.1 3.19 7.35 3.11C8.49 2.44 9.75 2 11.06 1.8C12.24 1.62 13.42 1.56 14.6 1.46L14.9 1.46L14.9 0.58C14.89 0.5 14.9 0.43 14.92 0.35C14.95 0.28 14.99 0.22 15.04 0.16C15.09 0.11 15.15 0.06 15.22 0.03C15.29 0.01 15.36 -0.01 15.44 0C15.51 0 15.58 0.02 15.65 0.05C15.72 0.08 15.78 0.12 15.82 0.18C15.87 0.23 15.91 0.29 15.93 0.36C15.96 0.43 15.97 0.51 15.96 0.58L15.96 1.46L19.06 1.76L19.06 1.02C19.05 0.94 19.05 0.86 19.07 0.79C19.1 0.71 19.13 0.64 19.18 0.58C19.24 0.52 19.3 0.48 19.37 0.45C19.44 0.41 19.52 0.4 19.6 0.4C19.9 0.4 20.12 0.64 20.12 1.02L20.12 2.03C20.52 2.19 20.92 2.29 21.3 2.47C21.81 2.74 22.3 3.04 22.78 3.37C22.88 3.45 22.97 3.55 23.02 3.67C23.07 3.79 23.09 3.93 23.08 4.06C23.08 8.88 23.08 13.7 23.08 18.53L23.08 18.93L23.36 18.93C23.74 18.93 24 19.15 24 19.45C24 19.75 23.76 20 23.36 20L0.41 20C0.3 19.97 0.21 19.92 0.14 19.84C0.07 19.76 0.02 19.66 0.01 19.55C-0.02 19.45 -0.01 19.34 0.04 19.24C0.09 19.15 0.17 19.07 0.27 19.03C0.45 19.03 0.47 18.83 0.47 18.65L0.47 9.72C0.45 9.56 0.48 9.4 0.56 9.26C0.63 9.12 0.75 9 0.89 8.92C1.88 8.32 2.98 7.93 4.13 7.77C4.95 7.53 5.79 7.47 6.67 7.39ZM14.86 2.51C13.78 2.51 12.7 2.67 11.66 2.81C10.39 2.97 9.16 3.37 8.02 3.98C7.92 4.02 7.84 4.09 7.78 4.18C7.72 4.28 7.7 4.39 7.7 4.5C7.7 9.17 7.7 13.86 7.7 18.57L7.7 18.93L14.84 18.93L14.86 2.51ZM22 18.87L22 4.32C22 4.25 21.99 4.19 21.97 4.12C21.95 4.06 21.92 4 21.88 3.96C21.35 3.57 20.75 3.29 20.12 3.15L20.12 3.77L20.38 3.77C20.51 3.78 20.63 3.83 20.73 3.93C20.82 4.02 20.87 4.15 20.88 4.28C20.88 4.41 20.83 4.54 20.75 4.64C20.67 4.75 20.55 4.82 20.42 4.84L15.96 4.84L15.96 7.49L19.04 7.49L19.04 6.05C19.04 5.96 19.06 5.88 19.09 5.81C19.13 5.74 19.18 5.68 19.24 5.63C19.31 5.58 19.38 5.54 19.46 5.52C19.54 5.5 19.62 5.51 19.7 5.52C19.82 5.55 19.93 5.62 20 5.73C20.08 5.83 20.11 5.96 20.1 6.09L20.1 7.49L20.42 7.49C20.52 7.5 20.62 7.54 20.7 7.61C20.77 7.68 20.82 7.77 20.84 7.87C20.85 8.06 20.8 8.25 20.7 8.4C20.56 8.51 20.39 8.56 20.22 8.56L15.96 8.56L15.96 11.21L19.04 11.21L19.04 9.96C19.04 9.82 19.09 9.68 19.19 9.57C19.3 9.47 19.43 9.41 19.58 9.4C19.72 9.41 19.85 9.47 19.94 9.57C20.04 9.67 20.09 9.81 20.1 9.95C20.1 10.17 20.1 10.37 20.1 10.57L20.1 11.23L20.38 11.23C20.51 11.24 20.63 11.3 20.72 11.39C20.81 11.48 20.87 11.6 20.88 11.73C20.88 11.86 20.84 11.99 20.76 12.09C20.68 12.2 20.56 12.27 20.44 12.3L15.96 12.3L15.96 14.91L19.04 14.91L19.04 13.86C19.03 13.76 19.03 13.66 19.04 13.56C19.09 13.46 19.18 13.37 19.29 13.32C19.39 13.27 19.52 13.25 19.63 13.28C19.75 13.31 19.85 13.37 19.93 13.46C20.01 13.55 20.05 13.66 20.06 13.78C20.06 14.17 20.06 14.55 20.06 14.93L20.38 14.93C20.49 14.94 20.6 15 20.69 15.08C20.77 15.16 20.82 15.27 20.84 15.39C20.86 15.51 20.83 15.63 20.77 15.73C20.71 15.83 20.61 15.9 20.5 15.93C20.38 15.95 20.26 15.95 20.14 15.93L15.92 15.93L15.92 18.93L19 18.93L19 17.34C18.99 17.27 19 17.2 19.03 17.13C19.05 17.06 19.09 17 19.14 16.95C19.18 16.89 19.24 16.85 19.31 16.82C19.37 16.79 19.45 16.78 19.52 16.78C19.59 16.78 19.67 16.79 19.73 16.82C19.8 16.85 19.86 16.9 19.91 16.95C19.96 17.01 20 17.07 20.03 17.14C20.05 17.21 20.06 17.29 20.06 17.36C20.06 17.56 20.06 17.76 20.06 17.96L20.06 18.93L22 18.87ZM6.63 18.87L6.63 12.22L5.21 12.22C4.02 12.31 2.86 12.63 1.79 13.16C1.71 13.19 1.65 13.25 1.6 13.32C1.56 13.4 1.54 13.48 1.55 13.56C1.55 15.21 1.55 16.86 1.55 18.51C1.55 18.51 1.55 18.69 1.55 18.79L6.63 18.87ZM1.55 12.18C3.16 11.5 4.88 11.16 6.63 11.17L6.63 8.5C5.87 8.5 5.13 8.62 4.41 8.74C3.49 8.86 2.6 9.14 1.79 9.58C1.69 9.58 1.57 9.72 1.57 9.8C1.55 10.57 1.55 11.35 1.55 12.18ZM19.04 3.83L19.04 3.17C19.04 2.99 19.04 2.91 18.82 2.91C18.6 2.91 18.22 2.79 17.92 2.77C17.28 2.77 16.62 2.65 15.92 2.59L15.92 3.83L19.04 3.83Z" fill="#8C99B2" fill-opacity="1.000000" fill-rule="nonzero"/>
</svg>
