<svg width="18.857147" height="24.000000" viewBox="0 0 18.8571 24" fill="none" xmlns="http://www.w3.org/2000/svg" xmlns:xlink="http://www.w3.org/1999/xlink">
    <desc>
        Created with Pixso.
    </desc>
    <defs/>
    <path id="Vector" d="M7.85 19.93C7.19 19.93 6.54 19.76 5.97 19.43C5.4 19.11 4.93 18.63 4.61 18.07C4.25 17.49 4.07 16.83 4.07 16.16C4.07 16.06 4.06 15.96 4.02 15.87C3.98 15.78 3.93 15.69 3.85 15.62C3.78 15.56 3.7 15.5 3.6 15.47C3.51 15.43 3.41 15.42 3.31 15.43C3.21 15.43 3.11 15.44 3.02 15.48C2.93 15.52 2.85 15.58 2.78 15.65C2.71 15.72 2.66 15.8 2.62 15.89C2.59 15.98 2.57 16.08 2.58 16.18C2.56 16.44 2.56 16.7 2.58 16.96C2.77 18.18 3.39 19.29 4.32 20.11C5.26 20.92 6.46 21.38 7.71 21.41C7.85 21.44 8 21.42 8.13 21.36C8.27 21.3 8.38 21.21 8.45 21.08C8.53 20.97 8.57 20.84 8.57 20.71C8.57 20.58 8.53 20.45 8.45 20.33C8.4 20.22 8.31 20.13 8.21 20.05C8.1 19.98 7.98 19.94 7.85 19.93Z" fill="#8C99B2" fill-opacity="1.000000" fill-rule="nonzero"/>
    <path id="Vector" d="M14.93 13.61C14.64 13.66 14.36 13.69 14.07 13.7C13.86 13.69 13.66 13.67 13.47 13.63C13.57 13.97 13.71 14.3 13.8 14.64C14.1 15.6 14.15 16.62 13.94 17.59C13.73 18.57 13.27 19.48 12.6 20.22C11.87 21.19 10.86 21.9 9.71 22.28C8.57 22.66 7.33 22.68 6.17 22.34C5.02 22.07 3.96 21.47 3.14 20.62C2.31 19.76 1.75 18.68 1.53 17.51C1.3 16.46 1.38 15.37 1.74 14.36C2.25 12.76 2.88 11.21 3.63 9.71C4.86 7.15 6.22 4.64 7.65 2.21L7.73 2.09L8.13 2.78L8.7 3.8C8.97 3.37 9.3 2.98 9.67 2.63L8.39 0.43C8.33 0.3 8.24 0.19 8.12 0.11C8 0.04 7.87 0 7.73 0C7.59 0 7.45 0.04 7.34 0.11C7.22 0.19 7.13 0.3 7.07 0.43C5.4 3.23 3.81 6.1 2.41 9.04C1.63 10.6 0.96 12.22 0.42 13.88C0.03 15.01 -0.1 16.22 0.06 17.4C0.38 19.3 1.38 21.02 2.87 22.23C4.37 23.44 6.25 24.07 8.16 23.99C9.29 23.93 10.39 23.62 11.38 23.08C12.38 22.55 13.24 21.8 13.91 20.89C14.59 19.98 15.05 18.93 15.27 17.82C15.5 16.71 15.47 15.56 15.2 14.47C15.13 14.15 15.02 13.88 14.93 13.61Z" fill="#8C99B2" fill-opacity="1.000000" fill-rule="nonzero"/>
    <path id="Vector" d="M17.45 3.92C16.67 3.16 15.66 2.69 14.57 2.59C13.49 2.49 12.4 2.77 11.5 3.38C10.59 3.99 9.93 4.89 9.62 5.94C9.31 6.98 9.37 8.1 9.79 9.11C10.21 10.11 10.97 10.94 11.94 11.45C12.9 11.96 14.01 12.12 15.08 11.9C16.15 11.68 17.11 11.1 17.79 10.26C18.48 9.41 18.86 8.35 18.85 7.26C18.85 6.64 18.73 6.03 18.49 5.45C18.25 4.88 17.89 4.36 17.45 3.92ZM14.11 10.8C13.53 10.8 12.95 10.66 12.44 10.38C11.93 10.11 11.49 9.71 11.17 9.23C10.84 8.75 10.64 8.19 10.59 7.61C10.53 7.03 10.62 6.45 10.84 5.91C11.06 5.37 11.41 4.9 11.86 4.53C12.31 4.16 12.85 3.91 13.42 3.8C13.99 3.68 14.58 3.71 15.13 3.88C15.69 4.05 16.2 4.35 16.61 4.77C17.1 5.26 17.44 5.89 17.57 6.58C17.71 7.26 17.64 7.97 17.37 8.62C17.1 9.26 16.65 9.81 16.07 10.2C15.49 10.59 14.81 10.8 14.11 10.8Z" fill="#8C99B2" fill-opacity="1.000000" fill-rule="nonzero"/>
    <path id="Vector" d="M16.47 6.63L14.84 6.63L14.84 4.94C14.84 4.76 14.77 4.6 14.65 4.47C14.52 4.35 14.36 4.28 14.18 4.28C14.01 4.28 13.84 4.35 13.72 4.47C13.59 4.59 13.52 4.76 13.51 4.94L13.51 6.63L11.79 6.63C11.62 6.63 11.45 6.69 11.33 6.82C11.21 6.94 11.14 7.11 11.14 7.28C11.14 7.45 11.21 7.62 11.33 7.74C11.45 7.87 11.62 7.94 11.79 7.94L13.47 7.94L13.47 9.63C13.47 9.8 13.54 9.97 13.67 10.09C13.79 10.21 13.96 10.28 14.14 10.28C14.31 10.28 14.48 10.21 14.6 10.09C14.72 9.97 14.79 9.8 14.79 9.63L14.79 7.94L16.48 7.94C16.66 7.94 16.82 7.87 16.95 7.74C17.07 7.62 17.14 7.45 17.14 7.28C17.14 7.11 17.07 6.94 16.95 6.82C16.82 6.69 16.66 6.63 16.48 6.63L16.47 6.63Z" fill="#8C99B2" fill-opacity="1.000000" fill-rule="nonzero"/>
</svg>
