<svg width="14.009033" height="14.000000" viewBox="0 0 14.009 14" fill="none" xmlns="http://www.w3.org/2000/svg" xmlns:xlink="http://www.w3.org/1999/xlink">
    <desc>
        Created with Pixso.
    </desc>
    <defs/>
    <path id="Vector" d="M0.89 0L0.07 0.81L5.05 5.8L1.55 9.32L0 14L4.67 12.44L8.2 8.95L13.18 13.93L14 13.1L0.89 0ZM11.7 0.07C11.12 0.07 10.55 0.29 10.12 0.72L6.69 4.15L7.52 4.97L9.38 3.11L10.88 4.62L9.02 6.48L9.85 7.3L13.28 3.87C14.14 3.01 14.14 1.59 13.28 0.72C12.84 0.29 12.27 0.07 11.7 0.07ZM5.87 6.62L7.37 8.13L4.04 11.42L1.83 12.16L2.57 9.95L5.87 6.62Z" fill="#FFFFFF" fill-opacity="1.000000" fill-rule="nonzero"/>
</svg>
