<svg width="20.000000" height="20.000000" viewBox="0 0 20 20" fill="none" xmlns="http://www.w3.org/2000/svg" xmlns:xlink="http://www.w3.org/1999/xlink">
    <desc>
        Created with Pixso.
    </desc>
    <defs>
        <clipPath id="clip1_351">
            <rect id="Search" rx="0.000000" width="19.000000" height="19.000000" transform="translate(0.500000 0.500000)" fill="white" fill-opacity="0"/>
        </clipPath>
    </defs>
    <rect id="Search" rx="0.000000" width="19.000000" height="19.000000" transform="translate(0.500000 0.500000)" fill="#FFFFFF" fill-opacity="0"/>
    <g clip-path="url(#clip1_351)">
        <path id="Vector" d="M11.84 2.5C8.74 2.5 6.22 5.02 6.22 8.12C6.22 9.44 6.69 10.65 7.47 11.61L1.25 17.83L2.12 18.72L8.35 12.5C9.31 13.27 10.52 13.75 11.84 13.75C14.94 13.75 17.47 11.22 17.47 8.12C17.47 5.02 14.94 2.5 11.84 2.5ZM11.84 3.75C14.26 3.75 16.22 5.7 16.22 8.12C16.22 10.54 14.26 12.5 11.84 12.5C9.42 12.5 7.47 10.54 7.47 8.12C7.47 5.7 9.42 3.75 11.84 3.75Z" fill="#FFFFFF" fill-opacity="1.000000" fill-rule="nonzero"/>
    </g>
</svg>
