<svg width="20.023483" height="20.000000" viewBox="0 0 20.0235 20" fill="none" xmlns="http://www.w3.org/2000/svg" xmlns:xlink="http://www.w3.org/1999/xlink">
    <desc>
        Created with Pixso.
    </desc>
    <defs/>
    <path id="Vector" d="M7.92 1.02L7.68 2.42C7.21 2.57 6.75 2.76 6.32 2.99L5.19 2.15C4.95 1.99 4.66 1.91 4.37 1.93C4.08 1.96 3.8 2.08 3.6 2.29L2.35 3.54C2.11 3.77 1.98 4.09 1.98 4.42C1.98 4.67 2.06 4.93 2.21 5.14L3.04 6.26C2.79 6.72 2.58 7.21 2.43 7.71L1.03 7.95C0.74 8 0.48 8.15 0.29 8.37C0.1 8.6 0 8.88 0 9.17L0 10.93C-0.02 11.23 0.08 11.53 0.27 11.76C0.46 12 0.73 12.16 1.03 12.21L2.46 12.46C2.61 12.93 2.8 13.38 3.03 13.82L2.2 14.94C2.05 15.16 1.98 15.41 1.98 15.66C1.98 15.83 2.01 15.99 2.07 16.14C2.13 16.29 2.22 16.43 2.34 16.54L3.58 17.79C3.79 18 4.07 18.12 4.36 18.15C4.65 18.17 4.94 18.09 5.18 17.93L6.31 17.09C6.74 17.32 7.2 17.51 7.68 17.64L7.96 18.96C8.01 19.25 8.16 19.51 8.38 19.7C8.61 19.89 8.89 19.99 9.19 20L10.94 20C11.23 19.99 11.52 19.89 11.74 19.7C11.97 19.51 12.12 19.25 12.17 18.96L12.41 17.53C12.89 17.38 13.34 17.19 13.78 16.96L14.9 17.79C15.14 17.96 15.43 18.04 15.72 18.01C16.02 17.99 16.29 17.86 16.5 17.66L17.74 16.41C17.97 16.17 18.1 15.86 18.11 15.53C18.11 15.27 18.02 15.02 17.87 14.81L17.04 13.68C17.26 13.26 17.44 12.82 17.58 12.36L18.98 12.12C19.27 12.07 19.54 11.92 19.73 11.7C19.92 11.47 20.02 11.19 20.02 10.89L20.02 9.13C20.02 8.84 19.92 8.55 19.73 8.33C19.54 8.11 19.27 7.96 18.98 7.91L17.6 7.71C17.46 7.24 17.27 6.78 17.04 6.35L17.87 5.23C18.02 5.01 18.09 4.76 18.1 4.51C18.1 4.34 18.07 4.18 18 4.03C17.94 3.88 17.85 3.74 17.74 3.63L16.49 2.3C16.28 2.09 16 1.97 15.71 1.94C15.42 1.92 15.13 2 14.89 2.17L13.76 3C13.33 2.76 12.87 2.58 12.39 2.44L12.16 1.03C12.11 0.74 11.96 0.48 11.74 0.29C11.52 0.1 11.23 -0.01 10.94 0L9.14 0C8.85 -0.01 8.56 0.09 8.34 0.28C8.11 0.47 7.96 0.73 7.92 1.02ZM10.91 1.11C10.93 1.11 10.96 1.12 10.98 1.14C10.99 1.16 11.01 1.18 11.01 1.21L11.3 2.96C11.32 3.07 11.37 3.17 11.44 3.25C11.52 3.33 11.61 3.39 11.72 3.41C12.33 3.57 12.92 3.82 13.47 4.15C13.56 4.2 13.67 4.23 13.78 4.23C13.89 4.23 14 4.2 14.09 4.15L15.55 3.11C15.56 3.1 15.57 3.09 15.58 3.09C15.59 3.08 15.61 3.08 15.62 3.08C15.63 3.08 15.65 3.08 15.66 3.09C15.67 3.09 15.68 3.1 15.69 3.11L16.94 4.34C16.94 4.35 16.95 4.36 16.95 4.38C16.95 4.39 16.94 4.4 16.94 4.42C16.94 4.43 16.94 4.45 16.94 4.47L15.9 5.93C15.84 6.02 15.81 6.13 15.81 6.24C15.81 6.35 15.84 6.45 15.9 6.54C16.23 7.09 16.47 7.68 16.63 8.3C16.66 8.4 16.71 8.5 16.79 8.57C16.87 8.65 16.97 8.7 17.08 8.71L18.84 9.02C18.86 9.02 18.89 9.03 18.91 9.05C18.93 9.07 18.94 9.09 18.94 9.12L18.94 10.88C18.94 10.91 18.93 10.94 18.91 10.96C18.89 10.98 18.86 10.99 18.84 11L17.08 11.29C16.97 11.31 16.87 11.35 16.79 11.43C16.71 11.5 16.66 11.6 16.63 11.7C16.47 12.3 16.24 12.88 15.92 13.41C15.88 13.51 15.86 13.61 15.86 13.71C15.86 13.82 15.89 13.94 15.96 14.03L17 15.5C17.01 15.51 17.01 15.53 17 15.55C17.01 15.58 17.01 15.61 17 15.64L15.76 16.89C15.73 16.9 15.71 16.91 15.68 16.91C15.66 16.91 15.63 16.9 15.61 16.89L14.09 15.88C14 15.82 13.89 15.79 13.78 15.79C13.67 15.79 13.56 15.82 13.47 15.88C12.93 16.2 12.34 16.45 11.73 16.61C11.62 16.64 11.53 16.7 11.45 16.78C11.38 16.86 11.33 16.96 11.31 17.07L11.01 18.84C11 18.86 10.99 18.89 10.97 18.9C10.95 18.92 10.92 18.93 10.9 18.93L9.19 18.93C9.16 18.93 9.13 18.92 9.11 18.9C9.09 18.89 9.08 18.86 9.07 18.84L8.78 17.09C8.76 16.98 8.72 16.88 8.64 16.8C8.57 16.72 8.47 16.66 8.36 16.63C7.75 16.48 7.15 16.24 6.6 15.92C6.51 15.86 6.4 15.83 6.3 15.83C6.19 15.83 6.08 15.86 5.99 15.92L4.53 16.97C4.51 16.98 4.48 16.99 4.46 16.99C4.43 16.99 4.4 16.98 4.38 16.97L3.13 15.72C3.13 15.71 3.13 15.69 3.13 15.68C3.13 15.67 3.13 15.65 3.13 15.64C3.13 15.62 3.13 15.6 3.13 15.57L4.17 14.13C4.23 14.04 4.26 13.93 4.26 13.83C4.26 13.72 4.23 13.61 4.17 13.52C3.84 12.97 3.59 12.38 3.43 11.76C3.4 11.66 3.34 11.56 3.26 11.49C3.18 11.41 3.08 11.36 2.98 11.34L1.22 11.09C1.2 11.09 1.17 11.08 1.15 11.06C1.13 11.04 1.12 11.01 1.12 10.98L1.12 9.16C1.12 9.14 1.13 9.11 1.15 9.09C1.17 9.07 1.2 9.06 1.22 9.05L2.97 8.76C3.07 8.74 3.18 8.69 3.26 8.62C3.34 8.55 3.39 8.45 3.42 8.34C3.58 7.71 3.83 7.1 4.16 6.54C4.22 6.45 4.25 6.35 4.25 6.24C4.25 6.13 4.22 6.02 4.16 5.93L3.11 4.48C3.11 4.46 3.11 4.44 3.11 4.42C3.11 4.39 3.11 4.36 3.11 4.34L4.36 3.09C4.38 3.07 4.41 3.07 4.43 3.07C4.46 3.07 4.48 3.07 4.51 3.09L5.96 4.12C6.05 4.18 6.16 4.22 6.27 4.22C6.38 4.22 6.48 4.18 6.58 4.12C7.12 3.79 7.71 3.55 8.33 3.39C8.44 3.36 8.53 3.31 8.6 3.23C8.68 3.15 8.73 3.05 8.75 2.94L9.04 1.18C9.05 1.15 9.06 1.13 9.08 1.11C9.1 1.09 9.13 1.09 9.15 1.09L10.91 1.11Z" fill="#8C99B2" fill-opacity="1.000000" fill-rule="evenodd"/>
    <path id="Vector" d="M5.7 10.02C5.7 10.87 5.95 11.71 6.43 12.42C6.91 13.14 7.58 13.69 8.38 14.02C9.17 14.35 10.04 14.43 10.88 14.26C11.72 14.1 12.49 13.68 13.1 13.08C13.7 12.47 14.11 11.7 14.28 10.86C14.44 10.01 14.36 9.14 14.03 8.35C13.7 7.56 13.14 6.89 12.43 6.41C11.71 5.94 10.88 5.68 10.02 5.69C9.45 5.69 8.89 5.8 8.36 6.02C7.84 6.23 7.36 6.55 6.96 6.96C6.56 7.36 6.24 7.84 6.02 8.36C5.81 8.89 5.7 9.45 5.7 10.02ZM13.21 10.02C13.21 10.65 13.03 11.27 12.67 11.79C12.32 12.32 11.82 12.73 11.24 12.97C10.66 13.21 10.02 13.27 9.4 13.15C8.78 13.03 8.21 12.72 7.76 12.28C7.31 11.83 7.01 11.26 6.89 10.64C6.76 10.02 6.83 9.38 7.07 8.8C7.31 8.21 7.72 7.71 8.24 7.36C8.77 7.01 9.39 6.82 10.02 6.82C10.87 6.82 11.68 7.16 12.28 7.76C12.88 8.36 13.21 9.17 13.21 10.02Z" fill="#8C99B2" fill-opacity="1.000000" fill-rule="evenodd"/>
</svg>
