<svg width="24.999512" height="19.000000" viewBox="0 0 24.9995 19" fill="none" xmlns="http://www.w3.org/2000/svg" xmlns:xlink="http://www.w3.org/1999/xlink">
    <desc>
        Created with Pixso.
    </desc>
    <defs/>
    <path id="Vector" d="M12.39 19C7.28 19 3.12 14.73 3.12 9.5C3.12 4.26 7.28 0 12.39 0C17.5 0 21.65 4.26 21.65 9.5C21.65 14.73 17.5 19 12.39 19ZM12.39 1.42C10.3 1.42 8.29 2.27 6.81 3.78C5.33 5.3 4.5 7.35 4.5 9.5C4.5 11.64 5.33 13.69 6.81 15.21C8.29 16.72 10.3 17.58 12.39 17.58C16.73 17.58 20.27 13.95 20.27 9.5C20.27 5.04 16.73 1.42 12.39 1.42Z" fill="#FFFFFF" fill-opacity="1.000000" fill-rule="nonzero"/>
    <path id="Vector" d="M3.39 18.07C-2.85 10.75 1.05 4 2.99 1.45C3.45 0.84 4.33 0.85 4.85 1.41L4.37 0.9C4.64 1.18 4.63 1.63 4.38 1.93C2.83 3.75 -1.58 10.06 4.42 17.12C4.67 17.41 4.66 17.84 4.39 18.11C4.1 18.38 3.65 18.37 3.39 18.07Z" fill="#FFFFFF" fill-opacity="1.000000" fill-rule="nonzero"/>
    <path id="Vector" d="M21.6 18.07C21.34 18.37 20.89 18.38 20.6 18.11C20.33 17.84 20.32 17.41 20.56 17.12C26.58 10.04 22.15 3.73 20.6 1.92C20.35 1.63 20.34 1.19 20.61 0.91C20.88 0.62 21.32 0.61 21.57 0.92C23.24 2.9 28.34 10.16 21.6 18.07Z" fill="#FFFFFF" fill-opacity="1.000000" fill-rule="nonzero"/>
    <path id="Vector" d="M13.96 14.29C13.96 14.58 13.88 14.86 13.72 15.1C13.57 15.33 13.35 15.52 13.09 15.63C12.83 15.74 12.54 15.77 12.27 15.71C11.99 15.66 11.74 15.52 11.54 15.32C11.35 15.11 11.21 14.85 11.16 14.57C11.1 14.29 11.13 14 11.24 13.73C11.34 13.47 11.53 13.24 11.76 13.08C11.99 12.92 12.27 12.84 12.55 12.84C12.73 12.84 12.92 12.88 13.09 12.95C13.26 13.02 13.41 13.13 13.55 13.26C13.68 13.4 13.78 13.56 13.85 13.73C13.92 13.91 13.96 14.1 13.96 14.29Z" fill="#FFFFFF" fill-opacity="1.000000" fill-rule="nonzero"/>
    <path id="Vector" d="M13.96 10.29C13.96 11.27 13.32 12.07 12.55 12.07C11.77 12.07 11.13 11.27 11.13 10.29L11.13 5.03C11.13 4.05 11.77 3.25 12.55 3.25C13.32 3.25 13.96 4.05 13.96 5.03L13.96 10.29Z" fill="#FFFFFF" fill-opacity="1.000000" fill-rule="nonzero"/>
</svg>
